<svg version="1.2" xmlns="http://www.w3.org/2000/svg" viewBox="0 0 602 602" width="50" height="50">
	<title>Mail_(iOS)-svg</title>
	<defs>
		<linearGradient id="g1" x1="305.2" y1="598.6" x2="305.8" y2="8.2" gradientUnits="userSpaceOnUse">
			<stop offset="0" stop-color="#70efff"/>
			<stop offset="1" stop-color="#5770ff"/>
		</linearGradient>
	</defs>
	<style>
		.s0 { fill: url(#g1) } 
		.s1 { fill: #ffffff } 
	</style>
	<g id="layer1">
		<g id="g3062">
			<path id="rect2996" class="s0" d="m138.7 1h324.6c76.3 0 137.7 61.4 137.7 137.7v324.6c0 76.3-61.4 137.7-137.7 137.7h-324.6c-76.3 0-137.7-61.4-137.7-137.7v-324.6c0-76.3 61.4-137.7 137.7-137.7z"/>
			<path id="rect3027" class="s1" d="m477.2 171.6c4.2 0 8.2 1 11.7 2.9l-55.2 56.9-57.3 59-56.7 58.5c-2.2 1.8-3.1 3.1-5 4-2.6 1.3-5.5 2.1-8.4 2-2.6-0.1-5.2-1.2-7.6-2.4-1.8-0.9-4.2-3.1-5-3.6l-49-50.2-3.3-3.5-1.7-1.7-1.6-1.7-1.1-1.2-57-59.2-56.5-58.1q4.2-1.7 9-1.7zm-361.7 7.5l57.3 59.2 57.3 58.9 1 1.3-52.3 50.6-58.9 57.3-8 7.5c-4.1-5.4-6.6-12.6-6.6-20.4v-190.8c0-9.7 3.8-18.3 9.8-24zm388.7 23.5v190.9c0 6.7-1.8 13-5 18.1l-3.5-3.3-59-57.3-54.4-52.7 1.1-1.1 57.1-58.9 55.8-57.7c4.9 5.6 7.9 13.4 7.9 22zm-216.9 153.6c2.5 2 3.6 3 5.7 4.1 4.1 2 8.6 3.8 13.2 3.9 4.6 0 9.1-1.6 13.3-3.5 2.6-1.2 4.4-3.2 7-4.9l49-50.4 54.3 52.5 59.2 57.2 3.8 3.8c-4.5 3.6-9.8 5.8-15.7 5.8h-344.8c-4.8 0-9.3-1.6-13.3-4.1l7.5-7.3 59.2-57.3 52.1-50.6z"/>
		</g>
	</g>
</svg>